<?xml version="1.0" encoding="UTF-8" standalone="no"?>
<svg
   xmlns:dc="http://purl.org/dc/elements/1.1/"
   xmlns:cc="http://creativecommons.org/ns#"
   xmlns:rdf="http://www.w3.org/1999/02/22-rdf-syntax-ns#"
   xmlns:svg="http://www.w3.org/2000/svg"
   xmlns="http://www.w3.org/2000/svg"
   viewBox="0 0 524 169.33333"
   height="169.33333"
   width="524"
   xml:space="preserve"
   id="svg2"
   version="1.1"><metadata
     id="metadata8"><rdf:RDF><cc:Work
         rdf:about=""><dc:format>image/svg+xml</dc:format><dc:type
           rdf:resource="http://purl.org/dc/dcmitype/StillImage" /></cc:Work></rdf:RDF></metadata><defs
     id="defs6" /><g
     transform="matrix(1.3333333,0,0,-1.3333333,0,169.33333)"
     id="g10"><g
       transform="scale(0.1)"
       id="g12"><path
         id="path14"
         style="fill:#47a8de;fill-opacity:1;fill-rule:evenodd;stroke:none"
         d="M 965,635 C 964.648,546.68 956.02,464.34 938.98,388.012 921.988,311.328 898.52,243.98 868.52,186.02 838.16,128.012 803.16,82.6602 763.52,50 723.828,17.3398 681.02,0.660156 635,0 588.98,0.660156 546.172,17.3398 506.48,50 c -39.64,32.6602 -74.64,78.012 -105,136.02 -30,57.96 -53.468,125.308 -70.46,201.992 C 313.98,464.34 305.352,546.68 305,635 c 0.352,88.32 8.98,170.66 26.02,246.988 16.992,76.684 40.46,144.032 70.46,201.992 30.36,58.01 65.36,103.36 105,136.02 39.692,32.66 82.5,49.34 128.52,50 46.02,-0.66 88.828,-17.34 128.52,-50 39.64,-32.66 74.64,-78.01 105,-136.02 30,-57.96 53.468,-125.308 70.46,-201.992 C 956.02,805.66 964.648,723.32 965,635" /><path
         id="path16"
         style="fill:#1157a6;fill-opacity:1;fill-rule:evenodd;stroke:none"
         d="m 920.512,800 c 35,-61.02 63.668,-121.68 85.968,-181.988 22.04,-60.352 37.5,-118.524 46.53,-174.492 8.98,-55.668 11.17,-107.192 6.48,-154.54 -4.33,-47.3 -15.31,-88.468 -33.01,-123.468 -17.96,-35 -42.808,-61.68 -74.492,-80.0003 -40,-22.3515 -85.308,-29.3398 -135.968,-21.0234 -50.668,8.3633 -103.68,30 -159.032,64.9997 -55,35.352 -108.976,81.844 -161.988,139.492 -53.012,58.008 -101.68,125 -146.02,201.02 -35,61.02 -63.628,121.84 -85.968,182.5 -21.992,60.352 -37.5,118.52 -46.532,174.488 -8.98,55.672 -11.32,107.192 -6.992,154.492 4.34,47.35 15.512,88.52 33.524,123.52 18.008,35 42.648,61.68 73.976,80 40,22.34 85.512,29.34 136.532,21.02 50.66,-8.36 103.468,-30.2 158.468,-65.51 55.352,-35 109.492,-81.33 162.5,-139.03 C 827.5,943.52 876.172,876.328 920.512,800" /><path
         id="path18"
         style="fill:#3f78ba;fill-opacity:1;fill-rule:evenodd;stroke:none"
         d="m 800,921.02 c 76.328,-44.34 143.32,-93.008 201.02,-146.02 57.65,-53.012 104.14,-106.988 139.49,-161.988 35,-55.352 56.64,-108.364 65,-159.032 8.67,-50.66 1.64,-95.968 -21.02,-135.968 -18.67,-31.684 -45.31,-56.332 -80,-74.032 -35,-17.96 -76.17,-29.14 -123.47,-33.468 -47.348,-4.34 -98.872,-2.192 -154.54,6.476 C 770.512,226.02 712.34,241.48 651.988,263.52 591.68,285.82 531.02,314.488 470,349.488 393.672,393.828 326.68,442.5 268.98,495.512 211.02,548.52 164.488,602.5 129.488,657.5 94.1797,712.852 72.3398,765.82 63.9805,816.48 55.3516,867.5 62.3398,913.012 85,953.012 c 18.672,31.636 45.352,56.328 80,73.978 35,18.01 76.172,29.18 123.52,33.52 47.3,4.33 98.82,1.99 154.492,-6.99 55.968,-9.03 114.136,-24.54 174.488,-46.53 60.352,-22.342 121.172,-50.97 182.5,-85.97" /><path
         id="path20"
         style="fill:#1157a6;fill-opacity:1;fill-rule:evenodd;stroke:none"
         d="m 635,965 c 88.32,-0.352 170.66,-8.98 246.988,-26.02 76.684,-16.992 144.032,-40.46 201.992,-70.46 58.01,-30.36 103.36,-65.36 136.02,-105 32.66,-39.692 49.34,-82.5 50,-128.52 -0.66,-46.02 -17.34,-88.828 -50,-128.52 -32.66,-39.64 -78.01,-74.64 -136.02,-105 -57.96,-30 -125.308,-53.468 -201.992,-70.46 C 805.66,313.98 723.32,305.352 635,305 546.68,305.352 464.34,313.98 388.012,331.02 311.328,348.012 243.98,371.48 186.02,401.48 128.012,431.84 82.6602,466.84 50,506.48 17.3398,546.172 0.660156,588.98 0,635 c 0.660156,46.02 17.3398,88.828 50,128.52 32.6602,39.64 78.012,74.64 136.02,105 57.96,30 125.308,53.468 201.992,70.46 C 464.34,956.02 546.68,964.648 635,965" /><path
         id="path22"
         style="fill:#47a8de;fill-opacity:1;fill-rule:evenodd;stroke:none"
         d="m 470,921.02 c 61.02,35 121.68,63.628 181.988,85.97 60.352,21.99 118.524,37.5 174.492,46.53 55.668,8.98 107.192,11.32 154.54,6.99 47.3,-4.34 88.47,-15.51 123.47,-33.52 35,-18.01 61.68,-42.65 80,-73.978 22.35,-40 29.34,-85.512 21.02,-136.532 -8.36,-50.66 -30,-103.468 -65,-158.468 C 1105.16,602.66 1058.67,548.52 1001.02,495.512 943.012,442.5 876.02,393.828 800,349.488 738.98,314.488 678.16,285.82 617.5,263.52 557.148,241.48 498.98,226.02 443.012,216.988 387.34,208.012 335.82,205.82 288.52,210.512 241.172,214.84 200,225.82 165,243.52 c -35,17.96 -61.68,42.808 -80,74.492 -22.3398,40 -29.3398,85.308 -21.0195,135.968 8.3593,50.668 30.1992,103.68 65.5075,159.032 35,55 81.332,108.976 139.032,161.988 57.96,53.012 125.152,101.68 201.48,146.02" /><path
         id="path24"
         style="fill:#3f78ba;fill-opacity:1;fill-rule:evenodd;stroke:none"
         d="m 348.98,800 c 44.34,76.328 93.008,143.32 146.02,201.02 53.012,57.96 106.988,104.49 161.988,139.49 55.352,35.31 108.364,57.15 159.032,65.51 50.66,8.63 95.968,1.64 135.968,-21.02 31.684,-18.67 56.332,-45.35 74.032,-80 17.96,-35 29.14,-76.17 33.47,-123.52 4.34,-47.3 2.19,-98.82 -6.48,-154.492 C 1043.98,771.02 1028.52,712.852 1006.48,652.5 984.18,592.148 955.512,531.328 920.512,470 876.172,393.672 827.5,326.68 774.488,268.98 721.48,211.332 667.5,164.84 612.5,129.488 557.148,94.4883 504.18,72.8516 453.52,64.4883 402.5,55.8203 356.988,62.8516 316.988,85.5117 285.352,104.18 260.66,130.82 243.012,165.512 c -18.012,35 -29.184,76.168 -33.524,123.468 -4.328,47.348 -1.988,98.872 6.992,154.54 9.032,55.968 24.54,114.14 46.532,174.492 C 285.352,678.32 313.98,738.98 348.98,800" /><path
         id="path26"
         style="fill:#ffffff;fill-opacity:1;fill-rule:evenodd;stroke:none"
         d="M 636.48,1113.98 C 568.52,1113.67 505,1100.82 446.02,1075.51 386.988,1050.16 335,1015.16 290,970.512 245.352,925.512 210.352,873.52 185,814.488 159.648,755.512 146.84,691.988 146.48,623.98 146.84,556.02 159.648,492.5 185,433.52 210.352,374.488 245.352,322.5 290,277.5 c 45,-44.648 96.988,-79.648 156.02,-105 58.98,-25.352 122.5,-38.16 190.46,-38.52 68.008,0.36 131.532,13.168 190.508,38.52 59.032,25.352 111.024,60.352 156.024,105 44.648,45 79.648,96.988 104.998,156.02 25.31,58.98 38.16,122.5 38.47,190.46 -0.31,68.008 -13.16,131.532 -38.47,190.508 -25.35,59.032 -60.35,111.024 -104.998,156.024 -45,44.648 -96.992,79.648 -156.024,104.998 -58.976,25.31 -122.5,38.16 -190.508,38.47 m 0,-1000 c -70.66,0.36 -136.832,13.68 -198.468,40 -61.332,26.372 -115.352,62.86 -161.992,109.54 -46.68,46.64 -83.168,100.66 -109.54,161.992 -26.32,61.636 -39.64,127.808 -40,198.468 0.36,70.668 13.68,136.84 40,198.52 26.372,61.328 62.86,115.352 109.54,161.988 46.64,46.682 100.66,83.172 161.992,109.492 61.636,26.37 127.808,39.69 198.468,40 70.668,-0.31 136.84,-13.63 198.52,-40 61.328,-26.32 115.352,-62.81 161.988,-109.492 46.682,-46.636 83.172,-100.66 109.492,-161.988 26.37,-61.68 39.69,-127.852 40,-198.52 -0.31,-70.66 -13.63,-136.832 -40,-198.468 C 1080.16,364.18 1043.67,310.16 996.988,263.52 950.352,216.84 896.328,180.352 835,153.98 773.32,127.66 707.148,114.34 636.48,113.98" /><path
         id="path28"
         style="fill:#ffffff;fill-opacity:1;fill-rule:evenodd;stroke:none"
         d="m 202.34,630.078 c 0,60.902 17.07,108.082 51.211,141.481 34.148,33.441 83.211,50.16 147.269,50.16 40.629,0 74.571,-5.938 101.879,-17.848 v -99.769 h -24.148 l -24.68,78.238 c -17.5,2.82 -32.23,4.18 -44.101,4.18 -44.809,0 -79.571,-13.282 -104.219,-39.879 -24.692,-26.602 -37.031,-65.469 -37.031,-116.563 0,-51.449 11.21,-90.387 33.589,-116.84 22.422,-26.398 54.801,-39.609 97.153,-39.609 15.386,0 29.218,1.211 41.476,3.672 v 109.73 l -59.879,11.02 v 18.398 H 544.18 v -18.398 l -38.871,-11.02 V 464.18 c -32.188,-17.149 -69.84,-25.739 -112.887,-25.739 -61.602,0 -108.672,16.637 -141.211,49.879 -32.582,33.239 -48.871,80.508 -48.871,141.758 z m 370.199,-183.75 v 24.141 l 49.84,12.07 16.84,296.133 -46.207,11.019 0.508,24.137 H 705.898 L 824.02,539.77 943.199,813.828 h 108.171 v -24.137 l -47.27,-11.019 17.85,-296.641 50.39,-11.562 V 446.328 H 912.73 v 24.141 L 958.949,481.48 944.77,730.352 820.352,443.672 H 797.23 L 671.211,730.898 658.09,481.48 704.84,470.469 v -24.141 z" /><path
         id="path30"
         style="fill:#ffffff;fill-opacity:1;fill-rule:nonzero;stroke:none"
         d="m 1384.06,400 v 21.559 l 44.69,10.941 15,265 -41.25,9.84 0.47,21.719 h 100.47 l 105.78,-245.469 106.72,245.469 h 96.87 V 707.34 l -42.34,-9.84 15.94,-265.469 45.15,-10.472 V 400 h -142.97 v 21.559 l 41.41,10 -12.66,222.66 -111.4,-256.559 h -20.63 l -112.81,257.031 -11.72,-223.132 41.72,-10 V 400 Z m 589.96,242.031 c 34.46,0 62.97,-11.679 85.47,-35 22.58,-23.359 33.91,-53.051 33.91,-89.062 0,-36.367 -11.33,-66.328 -33.91,-89.848 -22.5,-23.43 -51.01,-35.152 -85.47,-35.152 -34.49,0 -63.08,11.722 -85.78,35.152 -22.73,23.52 -34.06,53.481 -34.06,89.848 0,36.011 11.33,65.703 34.06,89.062 22.7,23.321 51.29,35 85.78,35 z m 0,-25.781 c -19.37,0 -34.33,-8.98 -44.84,-26.871 -10.55,-17.82 -15.78,-41.649 -15.78,-71.41 0,-29.809 5.23,-53.828 15.78,-72.028 10.51,-18.132 25.47,-27.191 44.84,-27.191 19.46,0 34.42,9.141 44.85,27.5 10.51,18.32 15.78,42.23 15.78,71.719 0,29.761 -5.27,53.59 -15.78,71.41 -10.43,17.891 -25.39,26.871 -44.85,26.871 z" /><path
         id="path32"
         style="fill:#ffffff;fill-opacity:1;fill-rule:nonzero;stroke:none"
         d="m 2129.96,606.879 v 14.062 l 66.72,56.868 h 14.22 v -45.618 l 67.65,2.809 v -28.121 h -67.65 v -143.91 c 0,-27.93 11.09,-41.879 33.28,-41.879 9.37,0 20.66,2.859 33.91,8.601 l 7.96,-21.722 c -19.49,-10 -39.53,-15 -60.15,-15 -22.62,0 -40.12,5.39 -52.5,16.09 -12.31,10.82 -18.44,29.57 -18.44,56.25 v 141.57 z" /><path
         id="path34"
         style="fill:#ffffff;fill-opacity:1;fill-rule:nonzero;stroke:none"
         d="m 2427.5,642.031 c 34.45,0 62.97,-11.679 85.47,-35 22.58,-23.359 33.91,-53.051 33.91,-89.062 0,-36.367 -11.33,-66.328 -33.91,-89.848 -22.5,-23.43 -51.02,-35.152 -85.47,-35.152 -34.49,0 -63.09,11.722 -85.78,35.152 -22.74,23.52 -34.06,53.481 -34.06,89.848 0,36.011 11.32,65.703 34.06,89.062 22.69,23.321 51.29,35 85.78,35 z m 0,-25.781 c -19.38,0 -34.34,-8.98 -44.84,-26.871 -10.55,-17.82 -15.78,-41.649 -15.78,-71.41 0,-29.809 5.23,-53.828 15.78,-72.028 10.5,-18.132 25.46,-27.191 44.84,-27.191 19.45,0 34.41,9.141 44.84,27.5 10.51,18.32 15.78,42.23 15.78,71.719 0,29.761 -5.27,53.59 -15.78,71.41 -10.43,17.891 -25.39,26.871 -44.84,26.871 z" /><path
         id="path36"
         style="fill:#ffffff;fill-opacity:1;fill-rule:nonzero;stroke:none"
         d="m 2583.91,400 v 20.16 l 40,9.531 v 167.188 h -40 v 20.312 L 2659.22,635 h 20.62 v -29.059 c 25.39,24.059 54.85,36.09 88.28,36.09 1.88,-5.941 2.82,-12.5 2.82,-19.691 0,-11.68 -1.41,-22.031 -4.22,-31.09 l -59.69,5.16 c -9.37,-4.379 -18.44,-9.691 -27.19,-15.941 V 429.691 l 49.38,-9.531 V 400 Z" /><path
         id="path38"
         style="fill:#ffffff;fill-opacity:1;fill-rule:nonzero;stroke:none"
         d="m 2802.03,403.75 v 67.191 h 21.72 l 17.81,-49.382 c 10.94,-1.868 23.17,-2.809 36.72,-2.809 20,0 34.14,2.578 42.5,7.809 8.32,5.203 12.5,14.062 12.5,26.562 0,9.688 -4.61,17.699 -13.75,24.07 -9.06,6.438 -24.69,14.098 -46.87,22.969 -21.06,8.75 -37.43,19.141 -49.07,31.25 -11.56,12.07 -17.34,27.34 -17.34,45.781 0,21.008 8.83,37.071 26.56,48.118 17.7,11.14 40.82,16.722 69.38,16.722 24.76,0 47.19,-2.972 67.19,-8.91 v -63.902 h -19.69 l -15.47,44.222 c -9.18,2.5 -19.84,3.75 -32.03,3.75 -16.88,0 -28.71,-2.621 -35.47,-7.812 -6.8,-5.238 -10.16,-12.969 -10.16,-23.289 0,-5.93 2.19,-11.25 6.56,-15.93 4.46,-4.691 9.42,-8.558 14.85,-11.57 5.51,-2.93 14.37,-7.11 26.56,-12.5 28.52,-11.871 48.95,-23.86 61.25,-35.93 12.38,-12 18.6,-27.582 18.6,-46.719 0,-22.929 -9.22,-40.429 -27.66,-52.5 -18.44,-11.961 -42.58,-17.972 -72.34,-17.972 -29.5,0 -56.96,3.59 -82.35,10.781 z" /><path
         id="path40"
         style="fill:#ffffff;fill-opacity:1;fill-rule:nonzero;stroke:none"
         d="m 3132.93,400 v 21.559 l 43.75,10.472 v 265 l -43.75,10.309 v 21.719 H 3277.3 V 707.34 l -43.28,-10.309 v -265 l 43.28,-10.472 V 400 Z" /><path
         id="path42"
         style="fill:#ffffff;fill-opacity:1;fill-rule:nonzero;stroke:none"
         d="m 3314.61,400 v 20.16 l 40,9.531 v 167.188 h -40 v 20.312 L 3389.92,635 h 21.1 v -22.5 c 23.82,19.691 49.06,29.531 75.62,29.531 24.45,0 43.75,-6.953 57.81,-20.781 14.14,-13.75 21.25,-31.41 21.25,-52.969 v -138.59 l 39.85,-9.531 V 400 h -126.41 v 20.16 l 30.63,9.531 V 559.84 c 0,31.961 -13.68,47.969 -40.94,47.969 -18.56,0 -37.81,-7.258 -57.81,-21.719 V 429.691 l 30.46,-9.531 V 400 Z" /><path
         id="path44"
         style="fill:#ffffff;fill-opacity:1;fill-rule:nonzero;stroke:none"
         d="m 3631.84,516.559 c 0,37.269 11.32,67.5 34.06,90.632 22.81,23.2 50.31,34.84 82.5,34.84 27.89,0 53.01,-6.562 75.31,-19.691 -0.31,-10.621 -3.51,-20.43 -9.53,-29.371 -5.94,-8.989 -12.66,-15.469 -20.16,-19.528 l -45.15,42.809 h -2.82 c -15.93,-2.809 -29.45,-12.93 -40.46,-30.309 -10.94,-17.421 -16.41,-40.242 -16.41,-68.441 0,-32.301 7.42,-56.02 22.34,-71.09 14.89,-15 34.57,-22.5 59.07,-22.5 19.06,0 36.6,4.41 52.65,13.281 l 7.97,-23.132 c -26.37,-14.059 -53.2,-21.09 -80.47,-21.09 -33.75,0 -62.03,10.859 -84.84,32.652 -22.74,21.758 -34.06,52.078 -34.06,90.938 z" /><path
         id="path46"
         style="fill:#ffffff;fill-opacity:1;fill-rule:nonzero;stroke:none"
         d="m 3863.63,424.84 c 0,8.832 3.13,16.289 9.38,22.351 6.33,6.129 13.9,9.219 22.65,9.219 8.75,0 16.14,-3.09 22.19,-9.219 6.13,-6.062 9.22,-13.519 9.22,-22.351 0,-8.43 -3.12,-15.891 -9.37,-22.34 -6.25,-6.328 -13.6,-9.531 -22.04,-9.531 -8.75,0 -16.32,3.203 -22.65,9.531 -6.25,6.449 -9.38,13.91 -9.38,22.34 z" /></g></g></svg>