<svg width="171" height="101" viewBox="0 0 171 101" fill="none" xmlns="http://www.w3.org/2000/svg">
<path d="M162 87.8699V98.4461C162 99.7052 160.604 100.735 158.887 100.735H148.974C147.257 100.735 145.861 99.7052 145.861 98.4461V97.5991C145.861 97.1184 146.25 96.7292 146.731 96.7292H151.653C152.111 96.7292 152.5 97.1184 152.5 97.5991V97.9654C152.5 98.8582 153.141 99.5907 153.942 99.5907C154.72 99.5907 155.361 98.8582 155.361 97.9654V95.493H148.974C147.257 95.493 145.861 94.4629 145.861 93.2038V87.8699C145.861 87.3892 146.25 87 146.731 87H151.653C152.111 87 152.5 87.3892 152.5 87.8699V92.4484C152.5 93.3412 153.141 94.0508 153.942 94.0508C154.72 94.0508 155.361 93.3412 155.361 92.4484V87.8699C155.361 87.3892 155.75 87 156.231 87H161.153C161.611 87 162 87.3892 162 87.8699Z" fill="#B4B4B4"/>
<path d="M143.041 87.847V99.8883C143.041 100.346 142.675 100.735 142.194 100.735H137.982C137.73 100.735 137.478 100.712 137.226 100.552C137.226 100.552 136.975 100.392 136.791 100.094L132.785 93.7074V99.8883C132.785 100.346 132.419 100.735 131.961 100.735H126.696C126.238 100.735 125.872 100.346 125.872 99.8883V87.847C125.872 87.3892 126.238 87 126.696 87H131.023C131.526 87 131.847 87.1831 132.121 87.5952L136.105 94.1882V87.847C136.105 87.3892 136.494 87 136.952 87H142.194C142.675 87 143.041 87.3892 143.041 87.847Z" fill="#B4B4B4"/>
<path d="M123.063 96.9123V98.4461C123.063 99.957 121.346 100.735 120.041 100.735H109.373C108.069 100.735 106.375 99.957 106.375 98.4461V96.7292C106.375 96.2714 106.741 95.8822 107.199 95.8822H112.51C113.242 95.8822 113.334 96.5232 113.334 97.1184C113.334 97.9425 113.883 98.7208 114.707 98.7208C115.554 98.7208 116.104 97.9425 116.104 97.1184C116.104 96.5461 116.012 96.0882 115.623 95.6304C115.325 95.287 114.89 94.8978 114.433 94.8292L110.106 94.2111C108.183 93.9364 106.375 93.0893 106.375 90.823V89.2892C106.375 87.7783 108.069 87 109.373 87H120.041C121.346 87 123.063 87.7783 123.063 89.2892V91.0061C123.063 91.464 122.697 91.8532 122.216 91.8532H116.928C116.195 91.8532 116.104 91.2122 116.104 90.617C116.104 89.7929 115.554 88.9916 114.707 88.9916C113.883 88.9916 113.334 89.7929 113.334 90.617C113.334 91.8303 113.746 92.7231 114.982 92.9062L119.332 93.5243C121.415 93.8219 123.063 94.4171 123.063 96.9123Z" fill="#0A6CE0"/>
<path d="M104.258 100.003C104.396 100.438 103.984 100.735 103.503 100.735H97.7113C97.3679 100.735 96.91 100.3 96.91 99.957C96.91 98.5835 95.7196 94.7147 94.2774 94.7147V92.9978H95.216C95.6739 92.9978 96.4064 92.952 96.4064 92.3339V89.6555C96.4064 89.1977 95.7196 88.9916 95.3305 88.9916H93.4533V99.8883C93.4533 100.323 93.087 100.735 92.6292 100.735H87.4555C86.9977 100.735 86.6314 100.323 86.6314 99.8883V87.847C86.6314 87.4121 86.9977 87 87.4555 87H100.046C101.717 87 103.045 87.9844 103.045 89.4953V92.2652C103.045 93.7761 101.717 94.7834 100.046 94.7605H99.7487C100.664 94.9207 101.191 95.1954 101.74 95.6533C102.175 96.0196 102.61 96.6376 102.976 97.2557C103.595 98.2859 104.098 99.3847 104.258 100.003Z" fill="#0A6CE0"/>
<path d="M83.8097 89.2892V98.4461C83.8097 99.7052 82.4133 100.735 80.6964 100.735H70.784C69.0671 100.735 67.6707 99.7052 67.6707 98.4461V89.2892C67.6707 88.0302 69.0671 87 70.784 87H80.6964C82.4133 87 83.8097 88.0302 83.8097 89.2892ZM77.1709 97.1184V90.617C77.1709 89.7242 76.53 88.9916 75.7287 88.9916C74.9504 88.9916 74.3094 89.7242 74.3094 90.617V97.1184C74.3094 98.0112 74.9504 98.7208 75.7287 98.7208C76.53 98.7208 77.1709 98.0112 77.1709 97.1184Z" fill="#0A6CE0"/>
<path d="M65.3348 87.847V88.9916C65.3348 89.4724 64.9457 89.8615 64.4878 89.8615H60.619V99.8655C60.619 100.346 60.2299 100.735 59.7491 100.735H54.6899C54.2092 100.735 53.8429 100.346 53.8429 99.8655V89.8615H49.8368C49.356 89.8615 48.9669 89.4724 48.9669 88.9916V87.847C48.9669 87.3892 49.356 87 49.8368 87H64.4878C64.9457 87 65.3348 87.3892 65.3348 87.847Z" fill="#0A6CE0"/>
<path d="M46.626 89.2892V98.4461C46.626 99.7052 45.2296 100.735 43.5126 100.735H33.6003C31.8834 100.735 30.4869 99.7052 30.4869 98.4461V89.2892C30.4869 88.0302 31.8834 87 33.6003 87H43.5126C45.2296 87 46.626 88.0302 46.626 89.2892ZM39.9872 97.1184V90.617C39.9872 89.7242 39.3462 88.9916 38.545 88.9916C37.7667 88.9916 37.1257 89.7242 37.1257 90.617V97.1184C37.1257 98.0112 37.7667 98.7208 38.545 98.7208C39.3462 98.7208 39.9872 98.0112 39.9872 97.1184Z" fill="#0A6CE0"/>
<path d="M27.6801 87.847V99.8655C27.6801 100.346 27.2909 100.735 26.8102 100.735H21.9112C21.4305 100.735 21.0642 100.346 21.0642 99.8655V94.005L18.6834 99.2245H17.9967L15.6159 94.005V99.8655C15.6159 100.346 15.2267 100.735 14.7689 100.735H9.86991C9.38917 100.735 9 100.346 9 99.8655V87.847C9 87.3892 9.38917 87 9.86991 87H14.7689C15.1351 87 15.4327 87.2518 15.5701 87.5723L18.34 93.6388L21.11 87.5723C21.2474 87.2518 21.545 87 21.9112 87H26.8102C27.2909 87 27.6801 87.3892 27.6801 87.847Z" fill="#0A6CE0"/>
<rect width="171" height="78" rx="4" fill="url(#paint0_linear_6_63)"/>
<g filter="url(#filter0_d_6_63)">
<path d="M77.6434 38.5867V58.3124C77.6434 59.8935 76.3499 61.1734 74.8281 61.1734H34.3482C28.6415 61.1734 24 57.7854 24 53.6445V23.5289C24 19.388 28.6415 16 34.3482 16H67.2952C73.0019 16 77.6434 19.388 77.6434 23.5289V28.1968C77.6434 29.7779 76.3499 31.0578 74.8281 31.0578H58.4688C56.8709 31.0578 55.5773 29.7779 55.5773 28.1968V27.8957C55.5773 24.9594 53.4468 22.5501 50.8598 22.5501C48.1966 22.5501 46.0661 24.9594 46.0661 27.8957V49.2777C46.0661 52.214 48.1966 54.548 50.8598 54.548C53.4468 54.548 55.5773 52.214 55.5773 49.2777V41.3724H50.8598V35.7257H74.8281C76.3499 35.7257 77.6434 37.0056 77.6434 38.5867Z" fill="white"/>
<path d="M146.109 18.7857V58.3124C146.109 59.8935 144.815 61.1734 143.217 61.1734H126.927C125.329 61.1734 124.111 59.8935 124.111 58.3124V39.0384L116.194 56.2043H113.911L105.994 39.0384V58.3124C105.994 59.8935 104.7 61.1734 103.178 61.1734H86.8884C85.2899 61.1734 83.9959 59.8935 83.9959 58.3124V18.7857C83.9959 17.2799 85.2899 16 86.8884 16H103.178C104.396 16 105.385 16.8282 105.842 17.8822L115.053 37.8338L124.263 17.8822C124.72 16.8282 125.709 16 126.927 16H143.217C144.815 16 146.109 17.2799 146.109 18.7857Z" fill="white"/>
</g>
<defs>
<filter id="filter0_d_6_63" x="19.4" y="14.4" width="131.309" height="54.3735" filterUnits="userSpaceOnUse" color-interpolation-filters="sRGB">
<feFlood flood-opacity="0" result="BackgroundImageFix"/>
<feColorMatrix in="SourceAlpha" type="matrix" values="0 0 0 0 0 0 0 0 0 0 0 0 0 0 0 0 0 0 127 0" result="hardAlpha"/>
<feOffset dy="3"/>
<feGaussianBlur stdDeviation="2.3"/>
<feComposite in2="hardAlpha" operator="out"/>
<feColorMatrix type="matrix" values="0 0 0 0 0 0 0 0 0 0 0 0 0 0 0 0 0 0 0.24 0"/>
<feBlend mode="normal" in2="BackgroundImageFix" result="effect1_dropShadow_6_63"/>
<feBlend mode="normal" in="SourceGraphic" in2="effect1_dropShadow_6_63" result="shape"/>
</filter>
<linearGradient id="paint0_linear_6_63" x1="147.981" y1="-6.5336e-08" x2="112.631" y2="113.574" gradientUnits="userSpaceOnUse">
<stop stop-color="#0A6CE0"/>
<stop offset="1" stop-color="#033F84"/>
</linearGradient>
</defs>
</svg>
